Coordinates
version=1
nRows=17
nColumns=33
inDegrees=yes

Units are S.I. units (second, meters, Newtons, ...)
Angles are in degrees.

endheader
time	ground_thorax_rot_x	ground_thorax_rot_y	ground_thorax_rot_z	ground_thorax_tx	ground_thorax_ty	ground_thorax_tz	clav_prot_r	clav_elev_r	scapula_abduction_r	scapula_elevation_r	scapula_upward_rot_r	scapula_winging_r	shoulder_elv_r	plane_of_elev_r	axial_rot_r	elbow_flexion_r	pro_sup_r	wrist_flex_r	wrist_dev_r	clav_prot_l	clav_elev_l	scapula_abduction_l	scapula_elevation_l	scapula_upward_rot_l	scapula_winging_l	shoulder_elv_l	plane_of_elev_l	axial_rot_l	elbow_flexion_l	pro_sup_l	wrist_flex_l	wrist_dev_l
      2.36000000	     -1.27053963	      3.52901301	     12.12944895	     -0.11253672	      1.02929192	      0.01465914	     11.22452160	    -14.92911821	     21.07877008	     -8.60940511	      3.14483159	     -2.93919225	    -22.47677422	    -71.09527006	    110.22888237	    -76.54862372	   -171.71249746	     13.24774090	      2.16967759	     16.21200371	     -6.41714445	    -23.42405065	    -15.00691096	    -34.43335554	      4.18569597	     59.78972817	    -17.38925378	      6.96958579	     58.62216931	     12.77794273	     19.05964953	    -13.25704620
      2.37000000	     -1.18702026	      3.28686905	     12.25588607	     -0.11320847	      1.02901710	      0.01455368	     10.96046899	    -14.32004066	     20.33242483	     -7.80745303	      2.50244879	     -2.96856069	    -23.30529441	    -71.78557838	    110.28114437	    -78.06606814	   -171.71916029	     13.83507830	      2.01895203	     15.93104280	     -5.83895413	    -23.02876725	    -15.80976315	    -34.97479398	      3.92023048	     59.61236883	    -18.38741053	      7.13936914	     60.63040768	     12.46900374	     18.90040215	    -13.59673578
      2.38000000	     -1.19816077	      3.07337604	     12.15456325	     -0.11330774	      1.02995470	      0.01443874	     10.50238820	    -14.77542313	     19.06716001	     -7.84118747	      1.49972055	     -2.21497285	    -25.17465947	    -72.99219897	    108.75135336	    -79.42236732	   -171.58377353	     16.28945070	     -0.27522473	     15.15740234	     -5.63740362	    -21.69357633	    -16.06230428	    -35.01529859	      3.24322600	     60.15940173	    -20.19124059	      6.20239548	     62.58751634	     11.87351040	     17.69966731	    -13.80787146
      2.39000000	     -1.10081216	      2.96384384	     12.11425573	     -0.11348377	      1.02994653	      0.01440571	     10.02207807	    -14.37032788	     18.06865336	     -7.31182329	      1.07567113	     -2.02221171	    -27.22075204	    -73.88725652	    107.57832266	    -80.63163963	   -170.91614387	     18.20780681	     -1.76917338	     14.51130283	     -5.01548321	    -20.55392232	    -16.64741791	    -34.94706716	      2.69086756	     60.22752381	    -21.37152583	      5.33873669	     64.14838276	     11.45523527	     16.85661905	    -14.19323301
      2.40000000	     -0.89382548	      2.74847620	     12.29880070	     -0.11415686	      1.02963707	      0.01442797	      9.76234187	    -13.63829313	     17.31401377	     -6.36752862	      0.39142825	     -2.08640933	    -27.97397190	    -74.57915999	    107.56942972	    -81.92795428	   -170.77036848	     18.78247315	     -1.92398958	     14.22835358	     -4.53688480	    -20.13721256	    -17.35616118	    -35.46587806	      2.39938336	     59.94421339	    -22.34205104	      5.48742529	     65.68817446	     11.29179107	     16.73410571	    -14.52326070
      2.41000000	     -0.63830991	      2.62942138	     12.44499951	     -0.11438196	      1.03023517	      0.01450613	      9.40648480	    -13.51532997	     16.18951815	     -5.80058010	     -0.73504569	     -1.68376349	    -29.47148987	    -75.48007843	    106.17202112	    -82.88784347	   -169.78885314	     21.35099714	     -3.92463154	     13.53250160	     -4.39836205	    -18.91474978	    -17.53861883	    -35.48814253	      1.80079251	     60.13560434	    -23.91805331	      4.60234712	     66.91051615	     11.42821127	     15.77679638	    -15.36181350
      2.42000000	     -0.48697466	      2.40083379	     12.34386872	     -0.11428125	      1.03039267	      0.01434460	      8.86512663	    -13.10375553	     15.19589436	     -5.35882112	     -0.91324276	     -1.48326641	    -31.56675788	    -76.50890505	    105.02926829	    -83.48729475	   -168.36347813	     23.90935680	     -5.80086215	     12.78896545	     -3.78227251	    -17.54688655	    -18.05896464	    -35.26326190	      1.17189069	     60.02766294	    -25.09358310	      3.94761317	     68.04743157	     11.58385416	     14.83142064	    -16.28863882
      2.43000000	     -0.36738735	      2.10774128	     12.30291131	     -0.11489249	      1.03064693	      0.01421053	      8.81302079	    -12.86667681	     14.83818030	     -4.89417494	     -1.50424026	     -1.44092913	    -33.60363392	    -77.16771447	    103.40862466	    -83.91954849	   -166.73777305	     26.33172472	     -7.54572029	     12.27413579	     -3.49047198	    -16.62295116	    -18.36494512	    -35.26285151	      0.73149047	     60.12340338	    -26.66459102	      3.30525260	     69.37649774	     11.79517498	     13.96085581	    -17.36460633
      2.44000000	     -0.18229439	      1.91205243	     12.26947539	     -0.11498196	      1.03058528	      0.01411613	      8.44389668	    -12.15362905	     14.21380445	     -4.25361077	     -1.48087198	     -1.51552769	    -36.06098635	    -77.78047771	    101.90725948	    -84.11526704	   -165.10225513	     28.68080329	     -9.15506848	     11.66132722	     -2.82193223	    -15.48148959	    -18.99505153	    -35.16647677	      0.18833662	     59.91264847	    -27.58263634	      2.79223985	     70.18303718	     12.15652260	     13.11871750	    -18.39745086
      2.45000000	      0.04369146	      1.62409921	     12.40881868	     -0.11569738	      1.03089312	      0.01405346	      8.49929745	    -11.79012602	     13.98521905	     -3.61654676	     -2.18913556	     -1.55956704	    -38.05821450	    -78.24917066	    100.12067567	    -84.28357216	   -163.63229689	     30.86269951	    -10.57211758	     11.26906252	     -2.70058626	    -14.81219757	    -19.24243350	    -35.39491947	     -0.15983307	     59.80590478	    -29.07335330	      2.46675163	     71.16063008	     12.47486721	     12.32146658	    -19.47539133
      2.46000000	      0.07562161	      1.36501090	     12.53097260	     -0.11628984	      1.03086203	      0.01398510	      8.26706733	    -11.17971131	     13.39430385	     -2.88179084	     -2.59762420	     -1.56590869	    -38.73389258	    -78.60809524	    100.19707738	    -84.46453628	   -163.41766697	     31.22121099	    -10.68147898	     11.05183713	     -2.19500276	    -14.46551943	    -19.95282782	    -35.83351947	     -0.43284919	     59.52828404	    -30.02711257	      2.63907336	     72.00507142	     12.44405969	     12.19456622	    -19.74996827
      2.47000000	      0.17291469	      1.29839182	     12.38741876	     -0.11619760	      1.03105864	      0.01379605	      7.88201785	    -10.82828306	     12.68141461	     -2.52430366	     -2.69471465	     -1.42798698	    -41.36292784	    -79.09648136	     98.08838768	    -83.76009712	   -160.91740835	     35.79604348	    -13.26408412	     10.43156262	     -1.49625296	    -13.19333707	    -20.39977940	    -35.26444354	     -0.95575306	     59.34850546	    -30.99837943	      1.55724352	     72.25745743	     13.61788720	     10.30621363	    -22.06416599
      2.48000000	      0.55109248	      1.09428766	     12.71825104	     -0.11685746	      1.03118946	      0.01386169	      7.86543599	    -10.11407106	     12.44695555	     -1.68181943	     -3.10467188	     -1.59164395	    -43.10629314	    -79.50940010	     96.77628959	    -83.53526251	   -159.71567866	     37.01332808	    -14.03310943	     10.17233115	     -1.32933520	    -12.75137766	    -20.67701587	    -35.47780641	     -1.19709474	     58.87759514	    -32.21376365	      1.18800884	     72.64380723	     13.90822909	      9.82086241	    -22.79702275
      2.49000000	      0.40507171	      0.83938366	     12.45002405	     -0.11695361	      1.03134272	      0.01366032	      7.81570126	     -9.78414474	     12.51309769	     -1.55333467	     -2.70777602	     -1.75785893	    -46.62181458	    -79.30983579	     93.93710310	    -82.51167689	   -157.11238138	     40.49121171	    -16.05109840	      9.67809582	     -0.63217822	    -11.68400752	    -21.13528840	    -34.94078805	     -1.64214238	     58.61230171	    -33.28575109	      0.67908905	     72.94776828	     14.98794912	      8.09366857	    -24.99999983
      2.50000000	      0.50093400	      0.61707104	     12.66491588	     -0.11763207	      1.03160086	      0.01358320	      7.73132259	     -9.33480270	     12.14725184	     -0.94033376	     -3.16502964	     -1.75201001	    -47.20871239	    -79.55994920	     93.82765511	    -82.12377718	   -156.91198150	     40.60216500	    -16.09464431	      9.55209230	     -0.38650753	    -11.50535573	    -21.60812316	    -35.40325081	     -1.83960125	     58.31515691	    -34.21539554	      0.63039506	     73.24514170	     15.00749186	      8.03112269	    -24.99999983
      2.51000000	      0.71021123	      0.52699262	     12.67872421	     -0.11795410	      1.03210776	      0.01360093	      7.75586825	     -8.91942668	     12.29758338	     -0.69647178	     -2.84820872	     -1.97124473	    -50.86535293	    -79.39602688	     90.34478629	    -80.72026947	   -153.90396390	     44.53394851	    -17.87469918	      9.14028387	     -0.18154485	    -10.65240643	    -21.61620356	    -34.94652343	     -2.13485565	     58.04239845	    -35.40602703	     -0.51196638	     73.32128760	     16.42151387	      5.80177418	    -24.99999983
      2.52000000	      0.74339220	      0.40482009	     12.61115415	     -0.11835567	      1.03196973	      0.01356137	      7.66615585	     -8.56703759	     11.98102098	     -0.23286415	     -3.16835540	     -1.94761324	    -51.26423107	    -79.38830233	     90.24294066	    -80.33835533	   -153.79171843	     44.54253786	    -17.90245448	      9.01055975	      0.08041200	    -10.44380209	    -22.05596035	    -35.30167752	     -2.32861157	     57.82410754	    -36.08855767	     -0.40843296	     73.66480677	     16.39867960	      5.73592355	    -24.99999983
